<svg xmlns="http://www.w3.org/2000/svg" viewBox="0 0 520 418"><rect width="520" height="418" style="fill:none"/><path d="M26.07,238c37.19,114.47,126.75,188,200,164.14s102.55-135.91,65.36-250.37A332.52,332.52,0,0,0,265,91.23c-31,30.52-70.85,55.21-117.09,70.24s-93,18.46-136,12A332.14,332.14,0,0,0,26.07,238Zm205.86-32.43a56.14,56.14,0,0,0-7.78,1.72,62.66,62.66,0,0,0-7.29,2.59c-1.17.46-2.26,1-3.38,1.53s-2.15,1.07-3.16,1.63-2,1.11-2.91,1.71l-1.37.85c-.44.29-.86.59-1.28.88l-1.23.84-1.14.85c-.75.54-1.47,1.06-2.11,1.58s-1.26,1-1.8,1.46L197,222.5c-.9.78-1.58,1.43-2.05,1.86s-.73.67-.73.67l-1.71-1.58s0-.13,0-.39-.08-.65-.09-1.12-.05-1.09,0-1.77c0-.34,0-.72,0-1.11s.06-.78.1-1.21a32.38,32.38,0,0,1,1.07-5.94,26.64,26.64,0,0,1,1.13-3.45,31.73,31.73,0,0,1,1.63-3.61,33.49,33.49,0,0,1,2.17-3.69,39.62,39.62,0,0,1,2.75-3.65c.49-.62,1-1.18,1.59-1.76s1.13-1.18,1.73-1.73,1.23-1.11,1.88-1.64a23.56,23.56,0,0,1,2-1.57,43.66,43.66,0,0,1,9.26-5.22,46.68,46.68,0,0,1,22-3.38,42.47,42.47,0,0,1,10.84,2.41,39.63,39.63,0,0,1,9.3,4.8,34.25,34.25,0,0,1,3.8,3.05,33.33,33.33,0,0,1,3.15,3.29,19.36,19.36,0,0,1,1.32,1.7c.41.57.8,1.12,1.16,1.68s.69,1.13,1,1.69.59,1.09.84,1.64.48,1.09.69,1.6.41,1,.57,1.52.33,1,.47,1.46.26.95.37,1.38.19.84.27,1.23a7.4,7.4,0,0,1,.12,1.09c.05.66.07,1.25.08,1.73s0,.87,0,1.13V214l-1.53,1.76-.79-.6c-.52-.39-1.29-1-2.24-1.64-.49-.32-1-.71-1.6-1.07s-1.26-.78-2-1.19-1.48-.8-2.3-1.21-1.67-.84-2.6-1.21-1.88-.8-2.91-1.14-2.08-.68-3.18-1a52.84,52.84,0,0,0-7-1.39,52.21,52.21,0,0,0-7.67-.43A52.91,52.91,0,0,0,231.93,205.56Zm-93.3,126.67,2-1.88s.8.07,2.16.24,3.24.52,5.6.74c1.19.11,2.41.29,3.71.44.67.06,1.38.09,2.07.15l2.13.18c2.9.2,6,.31,9.16.31,1.57,0,3.22-.1,4.79-.08.82-.07,1.63-.12,2.43-.16s1.59-.05,2.41-.16,1.62-.16,2.42-.21a10.09,10.09,0,0,0,1.2-.15l1.2-.13c1.59-.13,3.2-.47,4.76-.62q4.74-.82,9.28-1.75c3-.71,6-1.48,8.83-2.3s5.62-1.82,8.35-2.81,5.35-2.15,8-3.35c.63-.34,1.32-.63,2-.94l.95-.53,1-.5c.7-.32,1.3-.72,2-1.08l1-.56c.31-.2.7-.35,1-.56.62-.41,1.24-.83,1.91-1.23.33-.2.68-.39,1-.61s.61-.45.92-.67c.64-.43,1.24-.89,1.91-1.32s1.18-.95,1.82-1.41l1.84-1.42c.57-.5,1.12-1,1.71-1.49s1.14-1,1.73-1.47l1.57-1.51,1.56-1.47,1.46-1.38c.91-.89,1.74-1.76,2.61-2.58a9.77,9.77,0,0,0,1.16-1.25c.35-.43.71-.83,1-1.21.63-.75,1.22-1.39,1.7-1.9.95-1,1.53-1.58,1.53-1.58l2.75.28s0,.6-.1,1.72q0,.86-.12,2.07a23,23,0,0,1-.25,2.82c-.16,1.07-.33,2.26-.52,3.55l-.15,1c-.07.33-.15.66-.22,1q-.24,1-.48,2.13c-.17.73-.33,1.49-.53,2.26s-.48,1.55-.73,2.36-.52,1.63-.79,2.48-.69,1.66-1,2.52-.7,1.75-1.13,2.62l-1.35,2.63-.7,1.35c-.25.45-.54.88-.8,1.32l-1.68,2.69c-.58.9-1.27,1.75-1.91,2.64l-1,1.33c-.32.46-.72.86-1.08,1.29-.74.85-1.5,1.71-2.26,2.56l-2.51,2.42c-.43.4-.83.84-1.3,1.21l-1.37,1.13-1.39,1.13c-.23.19-.46.39-.7.57l-.74.52-3,2.09c-1,.63-2.1,1.24-3.16,1.87a68.49,68.49,0,0,1-13.7,5.8A76.85,76.85,0,0,1,196,355.94a81.06,81.06,0,0,1-14.34-.44l-3.42-.57c-.56-.1-1.13-.15-1.68-.3l-1.64-.41c-1.08-.28-2.17-.5-3.21-.83l-3.08-1a31.31,31.31,0,0,1-3-1.08l-2.84-1.14-2.65-1.28c-.87-.42-1.74-.8-2.53-1.28l-2.36-1.35-1.14-.65-1.06-.72-2-1.39-1-.67c-.31-.23-.6-.47-.9-.7l-3.28-2.63-2.62-2.41-1.11-1-.91-1-1.43-1.55ZM77.37,266.45c-.16-.51-.31-1-.43-1.57s-.28-1.11-.39-1.7-.2-1.19-.28-1.82-.16-1.29-.19-1.95,0-1.34,0-2a19.38,19.38,0,0,1,.07-2.15,33.33,33.33,0,0,1,.61-4.51A35.4,35.4,0,0,1,78,246a39.81,39.81,0,0,1,4.7-9.35,42.25,42.25,0,0,1,7.36-8.32,46.32,46.32,0,0,1,19.81-10.22,43.35,43.35,0,0,1,10.55-1.22c.86,0,1.71,0,2.55.08s1.67.14,2.49.23,1.62.23,2.41.38a22.39,22.39,0,0,1,2.33.49,37.61,37.61,0,0,1,4.36,1.34,33.48,33.48,0,0,1,3.93,1.71,30.11,30.11,0,0,1,3.45,2,26.67,26.67,0,0,1,2.94,2.12,32,32,0,0,1,4.35,4.17c.29.33.55.62.79.93s.46.61.67.89c.41.54.74,1,1,1.45s.46.74.59,1l.2.34-.46,2.28-1-.11c-.64-.07-1.57-.2-2.76-.3l-2-.18c-.72-.06-1.49-.07-2.32-.11s-1.71,0-2.63,0h-1.43l-1.49,0c-.5,0-1,0-1.55,0l-1.6.11c-1.09.06-2.21.21-3.36.34s-2.32.34-3.52.53-2.41.44-3.63.75a65,65,0,0,0-7.43,2.19,58,58,0,0,0-7.3,3.18,55.3,55.3,0,0,0-12.75,9,53.93,53.93,0,0,0-4.88,5.27c-.7.9-1.39,1.78-2,2.68s-1.16,1.77-1.69,2.63-.93,1.72-1.39,2.51-.79,1.6-1.15,2.33-.62,1.46-.89,2.12-.46,1.26-.67,1.8c-.4,1.08-.66,2-.85,2.65l-.29.95L81.25,274l-.23-.31c-.15-.21-.4-.52-.66-.92s-.61-.89-1-1.45a7,7,0,0,1-.55-.95c-.16-.36-.32-.75-.5-1.15s-.37-.87-.52-1.34S77.52,266.93,77.37,266.45Z" style="fill:#f13c1f"/><path d="M371.61,80.43c-47.39-14.16-88.49-38.31-120.78-68.59A337.72,337.72,0,0,0,225.38,74a342.76,342.76,0,0,0-10.49,46.65,292.55,292.55,0,0,0,53-43.08,334.84,334.84,0,0,1,23.46,47.85c.55.29,1.11.56,1.67.83a59.89,59.89,0,0,0,7.5,3.06,64.88,64.88,0,0,0,7.6,2c1.25.3,2.5.44,3.71.68s2.42.35,3.59.46,2.32.23,3.43.26l1.64.07c.53,0,1.06,0,1.57,0h1.52l1.45-.05c.94,0,1.83,0,2.67-.11s1.63-.1,2.36-.18l2-.22c1.21-.13,2.15-.29,2.8-.37l1-.14.52,2.31-.18.34c-.13.23-.32.59-.58,1s-.59.94-1,1.5c-.2.29-.42.6-.66.92s-.5.62-.77,1a33.94,33.94,0,0,1-4.33,4.35,28.65,28.65,0,0,1-2.94,2.23,31.42,31.42,0,0,1-3.46,2.09,39.44,39.44,0,0,1-8.36,3.29,22.54,22.54,0,0,1-2.36.56c-.8.17-1.61.34-2.44.45s-1.67.22-2.52.29-1.72.14-2.59.14c-1.13.05-2.28,0-3.43,0A323.77,323.77,0,0,1,314.92,233a78.12,78.12,0,0,1,10.87,1.93,70.21,70.21,0,0,1,14.07,5.56c1.09.61,2.19,1.21,3.26,1.83l3.09,2.05.76.51c.25.18.49.37.73.56l1.43,1.13,1.43,1.11c.48.36.9.8,1.35,1.19l2.6,2.4c.81.86,1.6,1.71,2.37,2.56.37.43.79.82,1.13,1.28l1,1.33c.67.89,1.39,1.74,2,2.64l1.77,2.69c.29.45.59.88.85,1.32l.75,1.36c.49.9,1,1.78,1.44,2.65s.81,1.78,1.2,2.64.77,1.7,1.12,2.53.6,1.69.87,2.5.54,1.61.81,2.38.39,1.55.58,2.29.37,1.46.54,2.15c.09.35.17.69.25,1l.18,1c.22,1.31.42,2.51.61,3.6a25.43,25.43,0,0,1,.33,2.86c.07.82.12,1.53.17,2.1.09,1.14.14,1.75.14,1.75l-2.79.35s-.6-.54-1.59-1.56c-.5-.52-1.12-1.15-1.78-1.9-.33-.38-.71-.77-1.08-1.21a10.09,10.09,0,0,0-1.21-1.24c-.9-.81-1.76-1.68-2.72-2.55L360,284.44,358.36,283c-.53-.48-1.07-1-1.64-1.5s-1.19-1-1.79-1.46-1.18-1-1.78-1.47l-1.91-1.4c-.65-.45-1.21-.95-1.87-1.39s-1.33-.87-2-1.3c-.33-.21-.65-.43-1-.65s-.68-.4-1-.6c-.7-.39-1.33-.8-2-1.2-.31-.22-.71-.36-1-.55l-1-.54c-.68-.36-1.3-.76-2-1.06l-1-.48-1-.52c-.7-.3-1.41-.58-2.06-.9-2.75-1.16-5.42-2.3-8.25-3.22s-5.62-1.88-8.57-2.65c-1.26-.33-2.54-.64-3.83-1-1.5,24.47-6.37,47.07-14.36,66.62,74.61,20.13,162.39-56.37,197.07-172.44a338,338,0,0,0,12.85-66C466.61,97,419,94.59,371.61,80.43Zm86.89,75.94c0,.5,0,1.1,0,1.77a9.18,9.18,0,0,1-.09,1.11l-.25,1.25c-.1.45-.2.94-.34,1.42s-.29,1-.45,1.49a16,16,0,0,1-.54,1.56c-.21.52-.41,1.09-.66,1.65s-.52,1.11-.82,1.69-.61,1.17-1,1.74-.73,1.15-1.13,1.74-.84,1.18-1.31,1.76a31.78,31.78,0,0,1-3.12,3.41,35.14,35.14,0,0,1-3.79,3.2,39.73,39.73,0,0,1-9.34,5.11,43.1,43.1,0,0,1-11,2.71,47.66,47.66,0,0,1-11.51-.1,48.26,48.26,0,0,1-11-2.8,43.73,43.73,0,0,1-9.55-5.09c-.72-.47-1.41-1-2.08-1.54s-1.32-1.08-1.95-1.62-1.22-1.14-1.8-1.72a23.15,23.15,0,0,1-1.67-1.76,38.12,38.12,0,0,1-2.87-3.64A32.72,32.72,0,0,1,380,166a30.83,30.83,0,0,1-1.74-3.64,26.87,26.87,0,0,1-1.23-3.48,32.86,32.86,0,0,1-1.24-6c0-.43-.09-.84-.12-1.23s0-.78,0-1.13c0-.69,0-1.3,0-1.79s.05-.89.07-1.15l0-.4,1.7-1.64.76.66c.49.42,1.19,1.07,2.13,1.85.47.38,1,.81,1.54,1.28s1.21.92,1.88,1.43,1.4,1,2.18,1.57l1.18.83,1.27.83c.43.28.86.58,1.32.86l1.41.83c.94.59,2,1.1,3,1.67s2.15,1.05,3.26,1.58,2.27,1,3.47,1.47a66.19,66.19,0,0,0,7.48,2.47,58.5,58.5,0,0,0,8,1.56,54.78,54.78,0,0,0,8.06.5,54.7,54.7,0,0,0,14.93-2.22c1.1-.34,2.19-.68,3.2-1.09s2-.81,2.93-1.22,1.78-.91,2.62-1.3,1.58-.88,2.31-1.29,1.36-.87,2-1.25,1.11-.79,1.6-1.13c1-.67,1.73-1.31,2.24-1.72l.8-.64,1.59,1.76s0,.13,0,.4S458.51,155.89,458.5,156.37Z" style="fill:#0e491d"/></svg>